<svg width="1710" height="598" viewBox="0 0 1710 598" fill="none" xmlns="http://www.w3.org/2000/svg">
<path fill-rule="evenodd" clip-rule="evenodd" d="M103.464 52.2063C103.464 80.4672 80.5345 103.377 52.25 103.377C23.9655 103.377 1.03636 80.4672 1.03636 52.2063C1.03636 23.9455 23.9655 1.0355 52.25 1.0355C80.5345 1.0355 103.464 23.9455 103.464 52.2063ZM104.5 52.2063C104.5 81.0391 81.1069 104.413 52.25 104.413C23.3931 104.413 0 81.0391 0 52.2063C0 23.3736 23.3931 0 52.25 0C81.1069 0 104.5 23.3736 104.5 52.2063ZM103.464 175.603C103.464 203.864 80.5345 226.774 52.25 226.774C23.9655 226.774 1.03636 203.864 1.03636 175.603C1.03636 147.342 23.9655 124.432 52.25 124.432C80.5345 124.432 103.464 147.342 103.464 175.603ZM104.5 175.603C104.5 204.436 81.1069 227.809 52.25 227.809C23.3931 227.809 0 204.436 0 175.603C0 146.77 23.3931 123.397 52.25 123.397C81.1069 123.397 104.5 146.77 104.5 175.603ZM52.25 350.171C80.5345 350.171 103.464 327.261 103.464 299C103.464 270.739 80.5345 247.829 52.25 247.829C23.9655 247.829 1.03636 270.739 1.03636 299C1.03636 327.261 23.9655 350.171 52.25 350.171ZM52.25 351.206C81.1069 351.206 104.5 327.833 104.5 299C104.5 270.167 81.1069 246.794 52.25 246.794C23.3931 246.794 0 270.167 0 299C0 327.833 23.3931 351.206 52.25 351.206ZM103.464 422.397C103.464 450.658 80.5345 473.568 52.25 473.568C23.9655 473.568 1.03636 450.658 1.03636 422.397C1.03636 394.136 23.9655 371.226 52.25 371.226C80.5345 371.226 103.464 394.136 103.464 422.397ZM104.5 422.397C104.5 451.23 81.1069 474.603 52.25 474.603C23.3931 474.603 0 451.23 0 422.397C0 393.564 23.3931 370.19 52.25 370.19C81.1069 370.19 104.5 393.564 104.5 422.397ZM52.25 596.964C80.5345 596.964 103.464 574.055 103.464 545.794C103.464 517.533 80.5345 494.623 52.25 494.623C23.9655 494.623 1.03636 517.533 1.03636 545.794C1.03636 574.055 23.9655 596.964 52.25 596.964ZM52.25 598C81.1069 598 104.5 574.626 104.5 545.794C104.5 516.961 81.1069 493.587 52.25 493.587C23.3931 493.587 0 516.961 0 545.794C0 574.626 23.3931 598 52.25 598ZM226.964 52.2063C226.964 80.4672 204.034 103.377 175.75 103.377C147.465 103.377 124.536 80.4672 124.536 52.2063C124.536 23.9455 147.465 1.0355 175.75 1.0355C204.034 1.0355 226.964 23.9455 226.964 52.2063ZM228 52.2063C228 81.0391 204.607 104.413 175.75 104.413C146.893 104.413 123.5 81.0391 123.5 52.2063C123.5 23.3736 146.893 0 175.75 0C204.607 0 228 23.3736 228 52.2063ZM175.75 226.774C204.034 226.774 226.964 203.864 226.964 175.603C226.964 147.342 204.034 124.432 175.75 124.432C147.465 124.432 124.536 147.342 124.536 175.603C124.536 203.864 147.465 226.774 175.75 226.774ZM175.75 227.809C204.607 227.809 228 204.436 228 175.603C228 146.77 204.607 123.397 175.75 123.397C146.893 123.397 123.5 146.77 123.5 175.603C123.5 204.436 146.893 227.809 175.75 227.809ZM226.964 299C226.964 327.261 204.034 350.171 175.75 350.171C147.465 350.171 124.536 327.261 124.536 299C124.536 270.739 147.465 247.829 175.75 247.829C204.034 247.829 226.964 270.739 226.964 299ZM228 299C228 327.833 204.607 351.206 175.75 351.206C146.893 351.206 123.5 327.833 123.5 299C123.5 270.167 146.893 246.794 175.75 246.794C204.607 246.794 228 270.167 228 299ZM175.75 473.568C204.034 473.568 226.964 450.658 226.964 422.397C226.964 394.136 204.034 371.226 175.75 371.226C147.465 371.226 124.536 394.136 124.536 422.397C124.536 450.658 147.465 473.568 175.75 473.568ZM175.75 474.603C204.607 474.603 228 451.23 228 422.397C228 393.564 204.607 370.19 175.75 370.19C146.893 370.19 123.5 393.564 123.5 422.397C123.5 451.23 146.893 474.603 175.75 474.603ZM226.964 545.794C226.964 574.055 204.034 596.964 175.75 596.964C147.465 596.964 124.536 574.055 124.536 545.794C124.536 517.533 147.465 494.623 175.75 494.623C204.034 494.623 226.964 517.533 226.964 545.794ZM228 545.794C228 574.626 204.607 598 175.75 598C146.893 598 123.5 574.626 123.5 545.794C123.5 516.961 146.893 493.587 175.75 493.587C204.607 493.587 228 516.961 228 545.794ZM299.25 103.377C327.534 103.377 350.464 80.4672 350.464 52.2063C350.464 23.9455 327.534 1.0355 299.25 1.0355C270.965 1.0355 248.036 23.9455 248.036 52.2063C248.036 80.4672 270.965 103.377 299.25 103.377ZM299.25 104.413C328.107 104.413 351.5 81.0391 351.5 52.2063C351.5 23.3736 328.107 0 299.25 0C270.393 0 247 23.3736 247 52.2063C247 81.0391 270.393 104.413 299.25 104.413ZM350.464 175.603C350.464 203.864 327.534 226.774 299.25 226.774C270.965 226.774 248.036 203.864 248.036 175.603C248.036 147.342 270.965 124.432 299.25 124.432C327.534 124.432 350.464 147.342 350.464 175.603ZM351.5 175.603C351.5 204.436 328.107 227.809 299.25 227.809C270.393 227.809 247 204.436 247 175.603C247 146.77 270.393 123.397 299.25 123.397C328.107 123.397 351.5 146.77 351.5 175.603ZM299.25 350.171C327.534 350.171 350.464 327.261 350.464 299C350.464 270.739 327.534 247.829 299.25 247.829C270.965 247.829 248.036 270.739 248.036 299C248.036 327.261 270.965 350.171 299.25 350.171ZM299.25 351.206C328.107 351.206 351.5 327.833 351.5 299C351.5 270.167 328.107 246.794 299.25 246.794C270.393 246.794 247 270.167 247 299C247 327.833 270.393 351.206 299.25 351.206ZM350.464 422.397C350.464 450.658 327.534 473.568 299.25 473.568C270.965 473.568 248.036 450.658 248.036 422.397C248.036 394.136 270.965 371.226 299.25 371.226C327.534 371.226 350.464 394.136 350.464 422.397ZM351.5 422.397C351.5 451.23 328.107 474.603 299.25 474.603C270.393 474.603 247 451.23 247 422.397C247 393.564 270.393 370.19 299.25 370.19C328.107 370.19 351.5 393.564 351.5 422.397ZM299.25 596.964C327.534 596.964 350.464 574.055 350.464 545.794C350.464 517.533 327.534 494.623 299.25 494.623C270.965 494.623 248.036 517.533 248.036 545.794C248.036 574.055 270.965 596.964 299.25 596.964ZM299.25 598C328.107 598 351.5 574.626 351.5 545.794C351.5 516.961 328.107 493.587 299.25 493.587C270.393 493.587 247 516.961 247 545.794C247 574.626 270.393 598 299.25 598ZM473.964 52.2063C473.964 80.4672 451.034 103.377 422.75 103.377C394.465 103.377 371.536 80.4672 371.536 52.2063C371.536 23.9455 394.465 1.0355 422.75 1.0355C451.034 1.0355 473.964 23.9455 473.964 52.2063ZM475 52.2063C475 81.0391 451.607 104.413 422.75 104.413C393.893 104.413 370.5 81.0391 370.5 52.2063C370.5 23.3736 393.893 0 422.75 0C451.607 0 475 23.3736 475 52.2063ZM422.75 226.774C451.034 226.774 473.964 203.864 473.964 175.603C473.964 147.342 451.034 124.432 422.75 124.432C394.465 124.432 371.536 147.342 371.536 175.603C371.536 203.864 394.465 226.774 422.75 226.774ZM422.75 227.809C451.607 227.809 475 204.436 475 175.603C475 146.77 451.607 123.397 422.75 123.397C393.893 123.397 370.5 146.77 370.5 175.603C370.5 204.436 393.893 227.809 422.75 227.809ZM473.964 299C473.964 327.261 451.034 350.171 422.75 350.171C394.465 350.171 371.536 327.261 371.536 299C371.536 270.739 394.465 247.829 422.75 247.829C451.034 247.829 473.964 270.739 473.964 299ZM475 299C475 327.833 451.607 351.206 422.75 351.206C393.893 351.206 370.5 327.833 370.5 299C370.5 270.167 393.893 246.794 422.75 246.794C451.607 246.794 475 270.167 475 299ZM422.75 473.568C451.034 473.568 473.964 450.658 473.964 422.397C473.964 394.136 451.034 371.226 422.75 371.226C394.465 371.226 371.536 394.136 371.536 422.397C371.536 450.658 394.465 473.568 422.75 473.568ZM422.75 474.603C451.607 474.603 475 451.23 475 422.397C475 393.564 451.607 370.19 422.75 370.19C393.893 370.19 370.5 393.564 370.5 422.397C370.5 451.23 393.893 474.603 422.75 474.603ZM473.964 545.794C473.964 574.055 451.034 596.964 422.75 596.964C394.465 596.964 371.536 574.055 371.536 545.794C371.536 517.533 394.465 494.623 422.75 494.623C451.034 494.623 473.964 517.533 473.964 545.794ZM475 545.794C475 574.626 451.607 598 422.75 598C393.893 598 370.5 574.626 370.5 545.794C370.5 516.961 393.893 493.587 422.75 493.587C451.607 493.587 475 516.961 475 545.794ZM546.25 103.377C574.534 103.377 597.464 80.4672 597.464 52.2063C597.464 23.9455 574.534 1.0355 546.25 1.0355C517.965 1.0355 495.036 23.9455 495.036 52.2063C495.036 80.4672 517.965 103.377 546.25 103.377ZM546.25 104.413C575.107 104.413 598.5 81.0391 598.5 52.2063C598.5 23.3736 575.107 0 546.25 0C517.393 0 494 23.3736 494 52.2063C494 81.0391 517.393 104.413 546.25 104.413ZM597.464 175.603C597.464 203.864 574.534 226.774 546.25 226.774C517.965 226.774 495.036 203.864 495.036 175.603C495.036 147.342 517.965 124.432 546.25 124.432C574.534 124.432 597.464 147.342 597.464 175.603ZM598.5 175.603C598.5 204.436 575.107 227.809 546.25 227.809C517.393 227.809 494 204.436 494 175.603C494 146.77 517.393 123.397 546.25 123.397C575.107 123.397 598.5 146.77 598.5 175.603ZM546.25 350.171C574.534 350.171 597.464 327.261 597.464 299C597.464 270.739 574.534 247.829 546.25 247.829C517.965 247.829 495.036 270.739 495.036 299C495.036 327.261 517.965 350.171 546.25 350.171ZM546.25 351.206C575.107 351.206 598.5 327.833 598.5 299C598.5 270.167 575.107 246.794 546.25 246.794C517.393 246.794 494 270.167 494 299C494 327.833 517.393 351.206 546.25 351.206ZM597.464 422.397C597.464 450.658 574.534 473.568 546.25 473.568C517.965 473.568 495.036 450.658 495.036 422.397C495.036 394.136 517.965 371.226 546.25 371.226C574.534 371.226 597.464 394.136 597.464 422.397ZM598.5 422.397C598.5 451.23 575.107 474.603 546.25 474.603C517.393 474.603 494 451.23 494 422.397C494 393.564 517.393 370.19 546.25 370.19C575.107 370.19 598.5 393.564 598.5 422.397ZM546.25 596.964C574.534 596.964 597.464 574.055 597.464 545.794C597.464 517.533 574.534 494.623 546.25 494.623C517.965 494.623 495.036 517.533 495.036 545.794C495.036 574.055 517.965 596.964 546.25 596.964ZM546.25 598C575.107 598 598.5 574.626 598.5 545.794C598.5 516.961 575.107 493.587 546.25 493.587C517.393 493.587 494 516.961 494 545.794C494 574.626 517.393 598 546.25 598ZM720.964 52.2063C720.964 80.4672 698.034 103.377 669.75 103.377C641.465 103.377 618.536 80.4672 618.536 52.2063C618.536 23.9455 641.465 1.0355 669.75 1.0355C698.034 1.0355 720.964 23.9455 720.964 52.2063ZM722 52.2063C722 81.0391 698.607 104.413 669.75 104.413C640.893 104.413 617.5 81.0391 617.5 52.2063C617.5 23.3736 640.893 0 669.75 0C698.607 0 722 23.3736 722 52.2063ZM669.75 226.774C698.034 226.774 720.964 203.864 720.964 175.603C720.964 147.342 698.034 124.432 669.75 124.432C641.465 124.432 618.536 147.342 618.536 175.603C618.536 203.864 641.465 226.774 669.75 226.774ZM669.75 227.809C698.607 227.809 722 204.436 722 175.603C722 146.77 698.607 123.397 669.75 123.397C640.893 123.397 617.5 146.77 617.5 175.603C617.5 204.436 640.893 227.809 669.75 227.809ZM720.964 299C720.964 327.261 698.034 350.171 669.75 350.171C641.465 350.171 618.536 327.261 618.536 299C618.536 270.739 641.465 247.829 669.75 247.829C698.034 247.829 720.964 270.739 720.964 299ZM722 299C722 327.833 698.607 351.206 669.75 351.206C640.893 351.206 617.5 327.833 617.5 299C617.5 270.167 640.893 246.794 669.75 246.794C698.607 246.794 722 270.167 722 299ZM669.75 473.568C698.034 473.568 720.964 450.658 720.964 422.397C720.964 394.136 698.034 371.226 669.75 371.226C641.465 371.226 618.536 394.136 618.536 422.397C618.536 450.658 641.465 473.568 669.75 473.568ZM669.75 474.603C698.607 474.603 722 451.23 722 422.397C722 393.564 698.607 370.19 669.75 370.19C640.893 370.19 617.5 393.564 617.5 422.397C617.5 451.23 640.893 474.603 669.75 474.603ZM720.964 545.794C720.964 574.055 698.034 596.964 669.75 596.964C641.465 596.964 618.536 574.055 618.536 545.794C618.536 517.533 641.465 494.623 669.75 494.623C698.034 494.623 720.964 517.533 720.964 545.794ZM722 545.794C722 574.626 698.607 598 669.75 598C640.893 598 617.5 574.626 617.5 545.794C617.5 516.961 640.893 493.587 669.75 493.587C698.607 493.587 722 516.961 722 545.794ZM793.25 103.377C821.534 103.377 844.464 80.4672 844.464 52.2063C844.464 23.9455 821.534 1.0355 793.25 1.0355C764.965 1.0355 742.036 23.9455 742.036 52.2063C742.036 80.4672 764.965 103.377 793.25 103.377ZM793.25 104.413C822.107 104.413 845.5 81.0391 845.5 52.2063C845.5 23.3736 822.107 0 793.25 0C764.393 0 741 23.3736 741 52.2063C741 81.0391 764.393 104.413 793.25 104.413ZM844.464 175.603C844.464 203.864 821.534 226.774 793.25 226.774C764.965 226.774 742.036 203.864 742.036 175.603C742.036 147.342 764.965 124.432 793.25 124.432C821.534 124.432 844.464 147.342 844.464 175.603ZM845.5 175.603C845.5 204.436 822.107 227.809 793.25 227.809C764.393 227.809 741 204.436 741 175.603C741 146.77 764.393 123.397 793.25 123.397C822.107 123.397 845.5 146.77 845.5 175.603ZM793.25 350.171C821.534 350.171 844.464 327.261 844.464 299C844.464 270.739 821.534 247.829 793.25 247.829C764.965 247.829 742.036 270.739 742.036 299C742.036 327.261 764.965 350.171 793.25 350.171ZM793.25 351.206C822.107 351.206 845.5 327.833 845.5 299C845.5 270.167 822.107 246.794 793.25 246.794C764.393 246.794 741 270.167 741 299C741 327.833 764.393 351.206 793.25 351.206ZM844.464 422.397C844.464 450.658 821.534 473.568 793.25 473.568C764.965 473.568 742.036 450.658 742.036 422.397C742.036 394.136 764.965 371.226 793.25 371.226C821.534 371.226 844.464 394.136 844.464 422.397ZM845.5 422.397C845.5 451.23 822.107 474.603 793.25 474.603C764.393 474.603 741 451.23 741 422.397C741 393.564 764.393 370.19 793.25 370.19C822.107 370.19 845.5 393.564 845.5 422.397ZM793.25 596.964C821.534 596.964 844.464 574.055 844.464 545.794C844.464 517.533 821.534 494.623 793.25 494.623C764.965 494.623 742.036 517.533 742.036 545.794C742.036 574.055 764.965 596.964 793.25 596.964ZM793.25 598C822.107 598 845.5 574.626 845.5 545.794C845.5 516.961 822.107 493.587 793.25 493.587C764.393 493.587 741 516.961 741 545.794C741 574.626 764.393 598 793.25 598ZM967.964 52.2063C967.964 80.4672 945.034 103.377 916.75 103.377C888.465 103.377 865.536 80.4672 865.536 52.2063C865.536 23.9455 888.465 1.0355 916.75 1.0355C945.034 1.0355 967.964 23.9455 967.964 52.2063ZM969 52.2063C969 81.0391 945.607 104.413 916.75 104.413C887.893 104.413 864.5 81.0391 864.5 52.2063C864.5 23.3736 887.893 0 916.75 0C945.607 0 969 23.3736 969 52.2063ZM916.75 226.774C945.034 226.774 967.964 203.864 967.964 175.603C967.964 147.342 945.034 124.432 916.75 124.432C888.465 124.432 865.536 147.342 865.536 175.603C865.536 203.864 888.465 226.774 916.75 226.774ZM916.75 227.809C945.607 227.809 969 204.436 969 175.603C969 146.77 945.607 123.397 916.75 123.397C887.893 123.397 864.5 146.77 864.5 175.603C864.5 204.436 887.893 227.809 916.75 227.809ZM967.964 299C967.964 327.261 945.034 350.171 916.75 350.171C888.465 350.171 865.536 327.261 865.536 299C865.536 270.739 888.465 247.829 916.75 247.829C945.034 247.829 967.964 270.739 967.964 299ZM969 299C969 327.833 945.607 351.206 916.75 351.206C887.893 351.206 864.5 327.833 864.5 299C864.5 270.167 887.893 246.794 916.75 246.794C945.607 246.794 969 270.167 969 299ZM916.75 473.568C945.034 473.568 967.964 450.658 967.964 422.397C967.964 394.136 945.034 371.226 916.75 371.226C888.465 371.226 865.536 394.136 865.536 422.397C865.536 450.658 888.465 473.568 916.75 473.568ZM916.75 474.603C945.607 474.603 969 451.23 969 422.397C969 393.564 945.607 370.19 916.75 370.19C887.893 370.19 864.5 393.564 864.5 422.397C864.5 451.23 887.893 474.603 916.75 474.603ZM967.964 545.794C967.964 574.055 945.034 596.964 916.75 596.964C888.465 596.964 865.536 574.055 865.536 545.794C865.536 517.533 888.465 494.623 916.75 494.623C945.034 494.623 967.964 517.533 967.964 545.794ZM969 545.794C969 574.626 945.607 598 916.75 598C887.893 598 864.5 574.626 864.5 545.794C864.5 516.961 887.893 493.587 916.75 493.587C945.607 493.587 969 516.961 969 545.794ZM1040.25 103.377C1068.53 103.377 1091.46 80.4672 1091.46 52.2063C1091.46 23.9455 1068.53 1.0355 1040.25 1.0355C1011.97 1.0355 989.036 23.9455 989.036 52.2063C989.036 80.4672 1011.97 103.377 1040.25 103.377ZM1040.25 104.413C1069.11 104.413 1092.5 81.0391 1092.5 52.2063C1092.5 23.3736 1069.11 0 1040.25 0C1011.39 0 988 23.3736 988 52.2063C988 81.0391 1011.39 104.413 1040.25 104.413ZM1090.43 175.603C1090.43 203.292 1067.96 225.738 1040.25 225.738C1012.54 225.738 990.073 203.292 990.073 175.603C990.073 147.914 1012.54 125.468 1040.25 125.468C1067.96 125.468 1090.43 147.914 1090.43 175.603ZM1092.5 175.603C1092.5 204.436 1069.11 227.809 1040.25 227.809C1011.39 227.809 988 204.436 988 175.603C988 146.77 1011.39 123.397 1040.25 123.397C1069.11 123.397 1092.5 146.77 1092.5 175.603ZM1040.25 348.1C1067.39 348.1 1089.39 326.117 1089.39 299C1089.39 271.883 1067.39 249.9 1040.25 249.9C1013.11 249.9 991.109 271.883 991.109 299C991.109 326.117 1013.11 348.1 1040.25 348.1ZM1040.25 351.206C1069.11 351.206 1092.5 327.833 1092.5 299C1092.5 270.167 1069.11 246.794 1040.25 246.794C1011.39 246.794 988 270.167 988 299C988 327.833 1011.39 351.206 1040.25 351.206ZM1090.43 422.397C1090.43 450.086 1067.96 472.532 1040.25 472.532C1012.54 472.532 990.073 450.086 990.073 422.397C990.073 394.708 1012.54 372.262 1040.25 372.262C1067.96 372.262 1090.43 394.708 1090.43 422.397ZM1092.5 422.397C1092.5 451.23 1069.11 474.603 1040.25 474.603C1011.39 474.603 988 451.23 988 422.397C988 393.564 1011.39 370.19 1040.25 370.19C1069.11 370.19 1092.5 393.564 1092.5 422.397ZM1040.25 596.964C1068.53 596.964 1091.46 574.055 1091.46 545.794C1091.46 517.533 1068.53 494.623 1040.25 494.623C1011.97 494.623 989.036 517.533 989.036 545.794C989.036 574.055 1011.97 596.964 1040.25 596.964ZM1040.25 598C1069.11 598 1092.5 574.626 1092.5 545.794C1092.5 516.961 1069.11 493.587 1040.25 493.587C1011.39 493.587 988 516.961 988 545.794C988 574.626 1011.39 598 1040.25 598ZM1214.96 52.2063C1214.96 80.4672 1192.03 103.377 1163.75 103.377C1135.47 103.377 1112.54 80.4672 1112.54 52.2063C1112.54 23.9455 1135.47 1.0355 1163.75 1.0355C1192.03 1.0355 1214.96 23.9455 1214.96 52.2063ZM1216 52.2063C1216 81.0391 1192.61 104.413 1163.75 104.413C1134.89 104.413 1111.5 81.0391 1111.5 52.2063C1111.5 23.3736 1134.89 0 1163.75 0C1192.61 0 1216 23.3736 1216 52.2063ZM1163.75 224.703C1190.89 224.703 1212.89 202.72 1212.89 175.603C1212.89 148.486 1190.89 126.503 1163.75 126.503C1136.61 126.503 1114.61 148.486 1114.61 175.603C1114.61 202.72 1136.61 224.703 1163.75 224.703ZM1163.75 227.809C1192.61 227.809 1216 204.436 1216 175.603C1216 146.77 1192.61 123.397 1163.75 123.397C1134.89 123.397 1111.5 146.77 1111.5 175.603C1111.5 204.436 1134.89 227.809 1163.75 227.809ZM1211.85 299C1211.85 325.545 1190.32 347.064 1163.75 347.064C1137.18 347.064 1115.65 325.545 1115.65 299C1115.65 272.455 1137.18 250.936 1163.75 250.936C1190.32 250.936 1211.85 272.455 1211.85 299ZM1216 299C1216 327.833 1192.61 351.206 1163.75 351.206C1134.89 351.206 1111.5 327.833 1111.5 299C1111.5 270.167 1134.89 246.794 1163.75 246.794C1192.61 246.794 1216 270.167 1216 299ZM1163.75 471.497C1190.89 471.497 1212.89 449.514 1212.89 422.397C1212.89 395.28 1190.89 373.297 1163.75 373.297C1136.61 373.297 1114.61 395.28 1114.61 422.397C1114.61 449.514 1136.61 471.497 1163.75 471.497ZM1163.75 474.603C1192.61 474.603 1216 451.23 1216 422.397C1216 393.564 1192.61 370.19 1163.75 370.19C1134.89 370.19 1111.5 393.564 1111.5 422.397C1111.5 451.23 1134.89 474.603 1163.75 474.603ZM1214.96 545.794C1214.96 574.055 1192.03 596.964 1163.75 596.964C1135.47 596.964 1112.54 574.055 1112.54 545.794C1112.54 517.533 1135.47 494.623 1163.75 494.623C1192.03 494.623 1214.96 517.533 1214.96 545.794ZM1216 545.794C1216 574.626 1192.61 598 1163.75 598C1134.89 598 1111.5 574.626 1111.5 545.794C1111.5 516.961 1134.89 493.587 1163.75 493.587C1192.61 493.587 1216 516.961 1216 545.794ZM1287.25 103.377C1315.53 103.377 1338.46 80.4672 1338.46 52.2063C1338.46 23.9455 1315.53 1.0355 1287.25 1.0355C1258.97 1.0355 1236.04 23.9455 1236.04 52.2063C1236.04 80.4672 1258.97 103.377 1287.25 103.377ZM1287.25 104.413C1316.11 104.413 1339.5 81.0391 1339.5 52.2063C1339.5 23.3736 1316.11 0 1287.25 0C1258.39 0 1235 23.3736 1235 52.2063C1235 81.0391 1258.39 104.413 1287.25 104.413ZM1337.43 175.603C1337.43 203.292 1314.96 225.738 1287.25 225.738C1259.54 225.738 1237.07 203.292 1237.07 175.603C1237.07 147.914 1259.54 125.468 1287.25 125.468C1314.96 125.468 1337.43 147.914 1337.43 175.603ZM1339.5 175.603C1339.5 204.436 1316.11 227.809 1287.25 227.809C1258.39 227.809 1235 204.436 1235 175.603C1235 146.77 1258.39 123.397 1287.25 123.397C1316.11 123.397 1339.5 146.77 1339.5 175.603ZM1287.25 348.1C1314.39 348.1 1336.39 326.117 1336.39 299C1336.39 271.883 1314.39 249.9 1287.25 249.9C1260.11 249.9 1238.11 271.883 1238.11 299C1238.11 326.117 1260.11 348.1 1287.25 348.1ZM1287.25 351.206C1316.11 351.206 1339.5 327.833 1339.5 299C1339.5 270.167 1316.11 246.794 1287.25 246.794C1258.39 246.794 1235 270.167 1235 299C1235 327.833 1258.39 351.206 1287.25 351.206ZM1337.43 422.397C1337.43 450.086 1314.96 472.532 1287.25 472.532C1259.54 472.532 1237.07 450.086 1237.07 422.397C1237.07 394.708 1259.54 372.262 1287.25 372.262C1314.96 372.262 1337.43 394.708 1337.43 422.397ZM1339.5 422.397C1339.5 451.23 1316.11 474.603 1287.25 474.603C1258.39 474.603 1235 451.23 1235 422.397C1235 393.564 1258.39 370.19 1287.25 370.19C1316.11 370.19 1339.5 393.564 1339.5 422.397ZM1287.25 596.964C1315.53 596.964 1338.46 574.055 1338.46 545.794C1338.46 517.533 1315.53 494.623 1287.25 494.623C1258.97 494.623 1236.04 517.533 1236.04 545.794C1236.04 574.055 1258.97 596.964 1287.25 596.964ZM1287.25 598C1316.11 598 1339.5 574.626 1339.5 545.794C1339.5 516.961 1316.11 493.587 1287.25 493.587C1258.39 493.587 1235 516.961 1235 545.794C1235 574.626 1258.39 598 1287.25 598ZM1461.96 52.2063C1461.96 80.4672 1439.03 103.377 1410.75 103.377C1382.47 103.377 1359.54 80.4672 1359.54 52.2063C1359.54 23.9455 1382.47 1.0355 1410.75 1.0355C1439.03 1.0355 1461.96 23.9455 1461.96 52.2063ZM1463 52.2063C1463 81.0391 1439.61 104.413 1410.75 104.413C1381.89 104.413 1358.5 81.0391 1358.5 52.2063C1358.5 23.3736 1381.89 0 1410.75 0C1439.61 0 1463 23.3736 1463 52.2063ZM1410.75 226.774C1439.03 226.774 1461.96 203.864 1461.96 175.603C1461.96 147.342 1439.03 124.432 1410.75 124.432C1382.47 124.432 1359.54 147.342 1359.54 175.603C1359.54 203.864 1382.47 226.774 1410.75 226.774ZM1410.75 227.809C1439.61 227.809 1463 204.436 1463 175.603C1463 146.77 1439.61 123.397 1410.75 123.397C1381.89 123.397 1358.5 146.77 1358.5 175.603C1358.5 204.436 1381.89 227.809 1410.75 227.809ZM1461.96 299C1461.96 327.261 1439.03 350.171 1410.75 350.171C1382.47 350.171 1359.54 327.261 1359.54 299C1359.54 270.739 1382.47 247.829 1410.75 247.829C1439.03 247.829 1461.96 270.739 1461.96 299ZM1463 299C1463 327.833 1439.61 351.206 1410.75 351.206C1381.89 351.206 1358.5 327.833 1358.5 299C1358.5 270.167 1381.89 246.794 1410.75 246.794C1439.61 246.794 1463 270.167 1463 299ZM1410.75 473.568C1439.03 473.568 1461.96 450.658 1461.96 422.397C1461.96 394.136 1439.03 371.226 1410.75 371.226C1382.47 371.226 1359.54 394.136 1359.54 422.397C1359.54 450.658 1382.47 473.568 1410.75 473.568ZM1410.75 474.603C1439.61 474.603 1463 451.23 1463 422.397C1463 393.564 1439.61 370.19 1410.75 370.19C1381.89 370.19 1358.5 393.564 1358.5 422.397C1358.5 451.23 1381.89 474.603 1410.75 474.603ZM1461.96 545.794C1461.96 574.055 1439.03 596.964 1410.75 596.964C1382.47 596.964 1359.54 574.055 1359.54 545.794C1359.54 517.533 1382.47 494.623 1410.75 494.623C1439.03 494.623 1461.96 517.533 1461.96 545.794ZM1463 545.794C1463 574.626 1439.61 598 1410.75 598C1381.89 598 1358.5 574.626 1358.5 545.794C1358.5 516.961 1381.89 493.587 1410.75 493.587C1439.61 493.587 1463 516.961 1463 545.794ZM1534.25 103.377C1562.53 103.377 1585.46 80.4672 1585.46 52.2063C1585.46 23.9455 1562.53 1.0355 1534.25 1.0355C1505.97 1.0355 1483.04 23.9455 1483.04 52.2063C1483.04 80.4672 1505.97 103.377 1534.25 103.377ZM1534.25 104.413C1563.11 104.413 1586.5 81.0391 1586.5 52.2063C1586.5 23.3736 1563.11 0 1534.25 0C1505.39 0 1482 23.3736 1482 52.2063C1482 81.0391 1505.39 104.413 1534.25 104.413ZM1585.46 175.603C1585.46 203.864 1562.53 226.774 1534.25 226.774C1505.97 226.774 1483.04 203.864 1483.04 175.603C1483.04 147.342 1505.97 124.432 1534.25 124.432C1562.53 124.432 1585.46 147.342 1585.46 175.603ZM1586.5 175.603C1586.5 204.436 1563.11 227.809 1534.25 227.809C1505.39 227.809 1482 204.436 1482 175.603C1482 146.77 1505.39 123.397 1534.25 123.397C1563.11 123.397 1586.5 146.77 1586.5 175.603ZM1534.25 350.171C1562.53 350.171 1585.46 327.261 1585.46 299C1585.46 270.739 1562.53 247.829 1534.25 247.829C1505.97 247.829 1483.04 270.739 1483.04 299C1483.04 327.261 1505.97 350.171 1534.25 350.171ZM1534.25 351.206C1563.11 351.206 1586.5 327.833 1586.5 299C1586.5 270.167 1563.11 246.794 1534.25 246.794C1505.39 246.794 1482 270.167 1482 299C1482 327.833 1505.39 351.206 1534.25 351.206ZM1585.46 422.397C1585.46 450.658 1562.53 473.568 1534.25 473.568C1505.97 473.568 1483.04 450.658 1483.04 422.397C1483.04 394.136 1505.97 371.226 1534.25 371.226C1562.53 371.226 1585.46 394.136 1585.46 422.397ZM1586.5 422.397C1586.5 451.23 1563.11 474.603 1534.25 474.603C1505.39 474.603 1482 451.23 1482 422.397C1482 393.564 1505.39 370.19 1534.25 370.19C1563.11 370.19 1586.5 393.564 1586.5 422.397ZM1534.25 596.964C1562.53 596.964 1585.46 574.055 1585.46 545.794C1585.46 517.533 1562.53 494.623 1534.25 494.623C1505.97 494.623 1483.04 517.533 1483.04 545.794C1483.04 574.055 1505.97 596.964 1534.25 596.964ZM1534.25 598C1563.11 598 1586.5 574.626 1586.5 545.794C1586.5 516.961 1563.11 493.587 1534.25 493.587C1505.39 493.587 1482 516.961 1482 545.794C1482 574.626 1505.39 598 1534.25 598ZM1708.96 52.2063C1708.96 80.4672 1686.03 103.377 1657.75 103.377C1629.47 103.377 1606.54 80.4672 1606.54 52.2063C1606.54 23.9455 1629.47 1.0355 1657.75 1.0355C1686.03 1.0355 1708.96 23.9455 1708.96 52.2063ZM1710 52.2063C1710 81.0391 1686.61 104.413 1657.75 104.413C1628.89 104.413 1605.5 81.0391 1605.5 52.2063C1605.5 23.3736 1628.89 0 1657.75 0C1686.61 0 1710 23.3736 1710 52.2063ZM1657.75 226.774C1686.03 226.774 1708.96 203.864 1708.96 175.603C1708.96 147.342 1686.03 124.432 1657.75 124.432C1629.47 124.432 1606.54 147.342 1606.54 175.603C1606.54 203.864 1629.47 226.774 1657.75 226.774ZM1657.75 227.809C1686.61 227.809 1710 204.436 1710 175.603C1710 146.77 1686.61 123.397 1657.75 123.397C1628.89 123.397 1605.5 146.77 1605.5 175.603C1605.5 204.436 1628.89 227.809 1657.75 227.809ZM1708.96 299C1708.96 327.261 1686.03 350.171 1657.75 350.171C1629.47 350.171 1606.54 327.261 1606.54 299C1606.54 270.739 1629.47 247.829 1657.75 247.829C1686.03 247.829 1708.96 270.739 1708.96 299ZM1710 299C1710 327.833 1686.61 351.206 1657.75 351.206C1628.89 351.206 1605.5 327.833 1605.5 299C1605.5 270.167 1628.89 246.794 1657.75 246.794C1686.61 246.794 1710 270.167 1710 299ZM1657.75 473.568C1686.03 473.568 1708.96 450.658 1708.96 422.397C1708.96 394.136 1686.03 371.226 1657.75 371.226C1629.47 371.226 1606.54 394.136 1606.54 422.397C1606.54 450.658 1629.47 473.568 1657.75 473.568ZM1657.75 474.603C1686.61 474.603 1710 451.23 1710 422.397C1710 393.564 1686.61 370.19 1657.75 370.19C1628.89 370.19 1605.5 393.564 1605.5 422.397C1605.5 451.23 1628.89 474.603 1657.75 474.603ZM1708.96 545.794C1708.96 574.055 1686.03 596.964 1657.75 596.964C1629.47 596.964 1606.54 574.055 1606.54 545.794C1606.54 517.533 1629.47 494.623 1657.75 494.623C1686.03 494.623 1708.96 517.533 1708.96 545.794ZM1710 545.794C1710 574.626 1686.61 598 1657.75 598C1628.89 598 1605.5 574.626 1605.5 545.794C1605.5 516.961 1628.89 493.587 1657.75 493.587C1686.61 493.587 1710 516.961 1710 545.794Z" fill="url(#paint0_linear_3_154)"/>
<defs>
<linearGradient id="paint0_linear_3_154" x1="1729.59" y1="299.259" x2="108.3" y2="299.259" gradientUnits="userSpaceOnUse">
<stop stop-color="#232323" stop-opacity="0"/>
<stop offset="0.340118" stop-color="#FFB800"/>
<stop offset="0.747081" stop-color="#232323" stop-opacity="0"/>
</linearGradient>
</defs>
</svg>
